<?xml version="1.0" standalone="no"?>
<!DOCTYPE svg PUBLIC "-//W3C//DTD SVG 20010904//EN"
 "http://www.w3.org/TR/2001/REC-SVG-20010904/DTD/svg10.dtd">
<svg version="1.0" xmlns="http://www.w3.org/2000/svg"
 width="700.000000pt" height="700.000000pt" viewBox="0 0 700.000000 700.000000"
 preserveAspectRatio="xMidYMid meet">
<metadata>
Created by potrace 1.14, written by Peter Selinger 2001-2017
</metadata>
<g transform="translate(0.000000,700.000000) scale(0.100000,-0.100000)"
fill="salmon" stroke="none">
<path d="M2028 6565 c-2 -1 -52 -5 -113 -9 -60 -3 -121 -8 -135 -11 -14 -3
-41 -8 -60 -11 -725 -116 -1350 -643 -1593 -1344 -32 -91 -74 -256 -83 -325
-3 -27 -7 -52 -9 -55 -7 -12 -18 -174 -19 -275 0 -125 11 -283 24 -335 5 -19
11 -53 14 -75 11 -74 48 -203 92 -323 74 -197 187 -394 324 -567 80 -100 2728
-2749 2792 -2793 26 -18 53 -32 60 -32 8 0 18 -4 24 -9 33 -30 201 -36 284
-11 25 8 70 29 100 48 36 23 507 488 1385 1366 732 732 1344 1347 1360 1366
206 235 361 527 441 827 14 53 27 106 29 117 2 12 8 48 14 81 30 171 32 481 6
615 -3 14 -7 43 -10 65 -3 22 -16 82 -29 135 -149 589 -544 1079 -1081 1340
-165 80 -337 142 -460 165 -209 38 -285 46 -440 46 -451 1 -863 -137 -1230
-412 -49 -37 -117 -92 -150 -123 -33 -30 -62 -55 -65 -56 -3 0 -23 17 -45 38
-195 182 -424 326 -670 419 -110 41 -168 60 -250 79 -38 9 -74 17 -80 18 -5 2
-32 6 -60 10 -27 4 -61 10 -75 12 -14 2 -70 7 -125 10 -55 3 -114 6 -132 8
-18 2 -33 3 -35 1z m227 -894 c139 -25 288 -81 399 -148 34 -21 66 -41 71 -45
6 -5 28 -22 50 -39 22 -16 137 -126 255 -242 226 -223 266 -253 376 -277 105
-24 235 -1 327 57 23 14 134 117 247 229 113 111 219 213 235 227 340 273 825
331 1224 144 298 -139 545 -431 627 -741 65 -245 55 -492 -29 -723 -40 -107
-125 -255 -191 -333 -17 -19 -551 -557 -1188 -1195 l-1158 -1160 -1173 1175
c-735 736 -1191 1200 -1220 1241 -212 304 -272 683 -161 1033 90 286 292 529
564 678 103 56 272 110 388 124 31 3 59 8 60 9 8 8 242 -4 297 -14z"/>
</g>
</svg>
